<?xml version="1.0" encoding="UTF-8" standalone="no"?><!-- Generator: Gravit.io --><svg xmlns="http://www.w3.org/2000/svg" xmlns:xlink="http://www.w3.org/1999/xlink" style="isolation:isolate" viewBox="0 0 1920 1080" width="1920pt" height="1080pt"><defs><clipPath id="_clipPath_c144l17Ybe15oWod7gCXDBtfWFRkz6xF"><rect width="1920" height="1080"/></clipPath></defs><g clip-path="url(#_clipPath_c144l17Ybe15oWod7gCXDBtfWFRkz6xF)"><g><clipPath id="_clipPath_aRBDZvJjkyEMb5e7SFKuhFihLjNpYmcq"><rect x="0" y="0" width="1920" height="1080" transform="matrix(1,0,0,1,0,0)" fill="rgb(255,255,255)"/></clipPath><g clip-path="url(#_clipPath_aRBDZvJjkyEMb5e7SFKuhFihLjNpYmcq)"><g><g><g style="opacity:0.61;"><g style="opacity:0.61;"><g opacity="0.61"><path d=" M 125.168 1080.016 L 125.168 -10.573 L 343.483 -29 C 343.483 -29 401.7 20.138 404.612 149.145 C 404.612 149.145 422.532 212.451 343.483 348.789 C 317.106 394.283 309.991 475.07 326.019 499.291 C 373.45 570.963 340.572 757.294 291.093 803.366 C 333.226 902.292 324.75 1004.5 366.328 1080.016 Q 125 1080.25 125.168 1080.016 Z  M 1582.805 1080.016 C 1593.379 1063.358 1599.248 1032.348 1589 1008 C 1579.429 985.26 1556.187 977.459 1538 963.25 C 1330.965 801.504 1600 702 1548.584 477.788 C 1549.293 404.905 1609.712 407.146 1595.153 278.144 C 1595.153 278.144 1554.405 90.786 1571.869 20.142 C 1589.332 -50.501 1729.062 4.783 1729.062 4.783 L 1848.406 588.362 L 1746 1078.25 L 1582.805 1080.016 Z " fill="rgb(30,31,77)"/></g></g></g><path d=" M 0.002 -1.14 L 326.209 -1.14 C 326.209 -1.14 355.332 72.585 375.724 134.024 C 396.116 195.462 273.783 272.258 235.92 398.203 C 198.056 524.149 285.434 539.3 326.209 622.24 C 366.985 705.181 318 760 297.087 877.418 C 297 955 310.638 1031.798 326.665 1080.179 C -3.545 1082.18 0.002 1080.179 0.002 1080.179 L 0.002 -1.14 L 0.002 -1.14 Z  M 1623.434 1080.006 C 1601.625 1053.75 1522.603 994.758 1512 955 C 1485.787 856.709 1566 841 1622.307 705.397 C 1668 598 1619.394 493.437 1599.009 379.778 C 1578.623 266.117 1683.474 232.326 1709.686 173.961 C 1719.499 152.112 1714.617 124.128 1695.042 90.009 C 1672.114 50.046 1622.307 -1.14 1622.307 -1.14 L 1928.127 -1.14 L 1919.996 1080.006 C 1919.996 1080.006 1920.438 1079.955 1623.434 1080.006 Z " fill="rgb(29,30,72)"/></g></g></g></g></g></svg>