<?xml version="1.0" encoding="UTF-8" standalone="no"?><!-- Generator: Gravit.io --><svg xmlns="http://www.w3.org/2000/svg" xmlns:xlink="http://www.w3.org/1999/xlink" style="isolation:isolate" viewBox="0 0 1920 1080" width="1920pt" height="1080pt"><defs><clipPath id="_clipPath_VNHWzNCyxBHvkjnF42b92RkiQ8srKQmK"><rect width="1920" height="1080"/></clipPath></defs><g clip-path="url(#_clipPath_VNHWzNCyxBHvkjnF42b92RkiQ8srKQmK)"><clipPath id="_clipPath_0ctuGzbXfgdqjEgfJRTRmbOFChkS8mWr"><rect x="0" y="0" width="1920" height="1080" transform="matrix(1,0,0,1,0,0)" fill="rgb(255,255,255)"/></clipPath><g clip-path="url(#_clipPath_0ctuGzbXfgdqjEgfJRTRmbOFChkS8mWr)"><g><g style="opacity:0.61;"><g opacity="0.61"><path d=" M 203.761 1159.653 L 125.168 1122.799 L 125.168 -10.573 L 343.483 -29 C 343.483 -29 401.7 20.138 404.612 149.145 C 404.612 149.145 422.532 212.451 343.483 348.789 C 317.106 394.283 309.991 475.07 326.019 499.291 C 373.45 570.963 340.572 757.294 291.093 803.366 C 291.093 803.366 374.053 1109.744 343.488 1147.368 C 330.465 1163.4 303.173 1168 276.136 1168 C 239.715 1168.002 203.761 1159.653 203.761 1159.653 Z  M 1531.121 1142.374 C 1531.121 1142.374 1528.434 1055.157 1531.121 1008 C 1537.707 892.412 1618.445 735.79 1595.153 686.648 C 1595.153 686.648 1547.844 553.91 1548.584 477.788 C 1549.293 404.905 1609.712 407.146 1595.153 278.144 C 1595.153 278.144 1554.405 90.786 1571.869 20.142 C 1589.332 -50.501 1729.062 4.783 1729.062 4.783 L 1848.406 588.362 L 1729.062 1113.582 L 1595.162 1142.376 L 1531.121 1142.374 L 1531.121 1142.374 Z " fill="rgb(30,31,77)"/></g></g><path d=" M 0 -1.146 L 326.017 -1.146 C 326.017 -1.146 355.123 72.569 375.503 133.999 C 395.883 195.429 273.622 272.214 235.781 398.142 C 197.939 524.07 285.266 539.219 326.017 622.148 C 366.769 705.077 334.749 846.575 296.912 877.29 C 259.074 908.006 305.643 1030.862 296.912 1064.649 C 288.18 1098.436 256.164 1129.149 250.343 1142.375 C 244.521 1155.601 0 1156.792 0 1156.792 L 0 -1.146 L 0 -1.146 Z  M 1571.873 1150.107 C 1502.012 1153.178 1647.556 1070.575 1621.359 972.299 C 1595.161 874.022 1528.21 736.009 1621.359 705.293 C 1714.507 674.577 1618.448 493.363 1598.074 379.719 C 1577.7 266.074 1682.49 232.288 1708.687 173.931 C 1734.884 115.574 1665.021 -1.146 1665.021 -1.146 L 1927 -1.146 L 1927 1144.507 C 1927 1144.507 1661.015 1150.473 1589.247 1150.473 C 1579.426 1150.473 1573.242 1150.361 1571.873 1150.107 Z " fill="rgb(30,31,77)"/></g></g></g></svg>
